<svg xmlns="http://www.w3.org/2000/svg" viewBox="0 0 393 84">
  <path fill="#262626" d="M15.78 26.578a3.286 3.286 0 1 1-6.571 0V9.358a8.514 8.514 0 0 1 2.486-6.007A8.472 8.472 0 0 1 17.688.86h14.615a8.545 8.545 0 0 1 5.858 2.334l8.715 8.434c.348.337.814.525 1.299.522h26.108a8.904 8.904 0 0 1 6.292 2.618 8.948 8.948 0 0 1 2.61 6.307v5.502c0 .873-.345 1.711-.962 2.329a3.282 3.282 0 0 1-4.646 0 3.298 3.298 0 0 1-.962-2.33V21.08c0-1.267-1.068-2.337-2.332-2.337H48.17a8.39 8.39 0 0 1-5.866-2.377l-8.672-8.395a1.942 1.942 0 0 0-1.33-.526H17.688a1.912 1.912 0 0 0-1.908 1.913v17.22Zm18.062 27.958a6.3 6.3 0 0 0-8.92 0 6.331 6.331 0 0 0 0 8.942 6.3 6.3 0 0 0 8.92 0 6.33 6.33 0 0 0 0-8.942Zm-5.947 2.981a2.1 2.1 0 0 1 1.487-.617 2.108 2.108 0 0 1 0 4.215 2.1 2.1 0 0 1-1.487-.617 2.11 2.11 0 0 1 0-2.98Zm23.815-2.98a6.3 6.3 0 0 0-8.92 0 6.331 6.331 0 0 0 0 8.941 6.3 6.3 0 0 0 8.92 0 6.331 6.331 0 0 0 0-8.942Zm-5.947 2.98a2.1 2.1 0 0 1 1.487-.617 2.108 2.108 0 0 1 0 4.215 2.1 2.1 0 0 1-1.487-.617 2.11 2.11 0 0 1 0-2.98Zm23.815-2.98a6.3 6.3 0 0 0-8.92 0 6.33 6.33 0 0 0 0 8.941 6.3 6.3 0 0 0 8.92 0 6.331 6.331 0 0 0 0-8.942Zm-5.947 2.98a2.1 2.1 0 0 1 1.487-.617 2.108 2.108 0 0 1 0 4.215 2.1 2.1 0 0 1-1.487-.617 2.11 2.11 0 0 1 0-2.98ZM12.14 81.704a10.15 10.15 0 0 1-3.51-5.807l-.004-.004L1.223 45.99a10.163 10.163 0 0 1 2.043-8.554 10.02 10.02 0 0 1 7.809-3.713H82.87a10.031 10.031 0 0 1 7.808 3.709 10.08 10.08 0 0 1 2.074 8.419l-7.465 30.182c-.918 4.56-5.076 7.96-9.856 7.96H18.517a10.106 10.106 0 0 1-6.376-2.288Zm-2.573-41.06a3.5 3.5 0 0 0-1.214.956 3.523 3.523 0 0 0-.721 2.944l7.407 29.904c.359 1.77 1.808 2.96 3.477 2.96h56.918a3.529 3.529 0 0 0 2.222-.8 3.544 3.544 0 0 0 1.224-2.024L86.346 44.4c.182-.908-.08-1.974-.755-2.801a3.49 3.49 0 0 0-2.721-1.294H11.074a3.49 3.49 0 0 0-1.506.338Z" clip-rule="evenodd"/>
  <path fill="#262626" d="M373.993 30.054h6.27l.198 6.6c1.122-4.488 3.762-6.6 8.316-6.6h3.366v5.676h-3.432c-5.412 0-7.854 2.97-7.854 8.844v20.46h-6.864v-34.98ZM336.425 47.544c0-11.154 6.534-18.282 16.566-18.282 8.184 0 15.312 5.412 15.708 17.886l.066 2.376h-25.146c.528 6.534 3.828 10.362 9.372 10.362 3.498 0 6.6-1.98 8.052-5.346l7.194.528c-2.046 6.6-8.184 10.758-15.246 10.758-10.032 0-16.566-7.128-16.566-18.282Zm7.326-3.3h17.754c-.924-6.732-4.554-9.042-8.514-9.042-5.148 0-8.382 3.366-9.24 9.042ZM318.772 22.134h6.864v7.92h9.306v5.676h-9.306v19.338c0 2.838 1.386 4.29 4.092 4.29h5.148v5.676h-5.742c-6.732 0-10.362-3.498-10.362-9.966V35.73h-5.28v-5.676h5.28v-7.92ZM292.259 30.054h6.27l.198 6.6c1.122-4.488 3.762-6.6 8.316-6.6h3.366v5.676h-3.432c-5.412 0-7.854 2.97-7.854 8.844v20.46h-6.864v-34.98ZM254.833 40.482c1.386-6.996 6.93-11.22 14.85-11.22 9.504 0 14.652 5.28 14.652 14.784v13.2c0 1.65.726 2.244 2.112 2.244h1.452v5.544h-2.31c-3.168.066-7.326-.594-7.59-5.346-1.518 3.3-5.412 6.138-11.154 6.138-6.996 0-12.606-3.696-12.606-9.966 0-7.062 5.214-9.042 13.2-10.56l10.032-1.98c-.066-5.61-2.64-8.316-7.788-8.316-4.092 0-6.798 2.046-7.788 5.94l-7.062-.462Zm6.534 15.246c0 2.574 2.178 4.686 6.798 4.686 5.346 0 9.438-3.762 9.438-11.418v-.33l-7.524 1.32c-4.884.858-8.712 1.254-8.712 5.742ZM235.362 22.134h6.864v7.92h9.306v5.676h-9.306v19.338c0 2.838 1.386 4.29 4.092 4.29h5.148v5.676h-5.742c-6.732 0-10.362-3.498-10.362-9.966V35.73h-5.28v-5.676h5.28v-7.92ZM220.403 41.01c-.726-3.696-4.29-5.94-7.92-5.94-3.564 0-6.468 1.848-6.402 4.95 0 3.168 4.158 4.488 7.722 5.148 8.58 1.584 14.256 3.894 14.256 10.758 0 6.864-6.996 9.9-14.19 9.9-8.844 0-15.246-4.554-15.774-11.814l7.062-.462c.66 3.96 3.762 6.402 8.646 6.402 3.102 0 7.128-1.056 7.128-4.29-.066-3.828-4.488-4.29-8.316-5.148-7.26-1.584-13.662-3.498-13.662-10.23 0-6.798 5.478-11.022 14.124-11.022 7.458 0 13.266 4.422 14.388 11.352l-7.062.396ZM179.262 30.054h6.27l.198 6.6c1.122-4.488 3.762-6.6 8.316-6.6h3.366v5.676h-3.432c-5.412 0-7.854 2.97-7.854 8.844v20.46h-6.864v-34.98ZM165.337 30.054h6.864v34.98h-6.864v-34.98Zm-.066-5.214v-6.666h7.128v6.666h-7.128ZM137.982 18.174c14.652 0 22.902 8.448 22.902 23.496 0 14.982-8.052 23.364-22.506 23.364H123v-46.86h14.982Zm-7.986 40.392h7.986c10.494 0 15.642-5.544 15.642-16.896 0-11.484-5.148-17.028-15.642-17.028h-7.986v33.924Z"/>
</svg>